<?xml version="1.0" standalone="no"?>
<!DOCTYPE svg PUBLIC "-//W3C//DTD SVG 20010904//EN"
 "http://www.w3.org/TR/2001/REC-SVG-20010904/DTD/svg10.dtd">
<svg version="1.0" xmlns="http://www.w3.org/2000/svg"
 width="564.000000pt" height="564.000000pt" viewBox="0 0 564.000000 564.000000"
 preserveAspectRatio="xMidYMid meet">

<g transform="translate(0.000000,564.000000) scale(0.100000,-0.100000)"
fill="#000000" stroke="none">
<path d="M2627 5630 c-59 -4 -110 -10 -114 -14 -3 -3 0 -6 9 -6 20 0 52 -36
43 -49 -3 -6 -3 -11 2 -11 19 0 35 -63 40 -162 l6 -106 -37 -24 c-35 -22 -46
-38 -27 -38 5 0 13 -9 16 -20 4 -11 10 -18 15 -15 20 12 35 -50 57 -240 36
-295 36 -302 25 -309 -13 -8 -140 59 -247 130 -115 76 -125 79 -180 64 -63
-18 -60 -52 8 -93 39 -25 34 -44 -18 -69 -25 -12 -45 -28 -45 -35 0 -12 58
-33 93 -33 30 0 18 -29 -23 -56 -43 -29 -47 -39 -25 -68 8 -11 15 -33 15 -49
0 -27 2 -29 28 -22 61 15 77 12 80 -17 2 -15 -6 -57 -18 -94 -11 -38 -23 -102
-27 -143 l-6 -75 30 22 c39 28 43 18 31 -76 -6 -41 -7 -76 -4 -80 4 -3 23 11
44 31 44 43 96 142 112 211 13 57 36 96 59 96 9 0 52 -22 96 -50 44 -27 87
-50 96 -50 8 0 23 -15 32 -32 l18 -33 -7 60 c-3 33 -7 83 -9 110 -1 28 -14 95
-28 150 -59 229 -84 419 -102 770 -13 261 -12 317 2 355 4 8 5 19 4 24 -1 4 6
14 16 22 13 10 64 14 198 15 168 2 173 3 80 9 -122 9 -198 9 -338 0z m-224
-908 c18 -20 13 -32 -11 -32 -17 0 -52 28 -52 42 0 15 47 8 63 -10z m247 -143
c0 -6 -4 -7 -10 -4 -5 3 -10 11 -10 16 0 6 5 7 10 4 6 -3 10 -11 10 -16z"/>
<path d="M2228 5573 c-57 -15 -78 -33 -38 -33 32 0 43 -34 25 -77 -24 -58 -33
-65 -59 -48 -32 21 -108 34 -134 22 -27 -12 -29 -55 -4 -109 15 -33 24 -40 72
-54 30 -9 60 -21 65 -28 22 -26 44 -25 66 2 18 23 30 28 87 32 60 4 67 7 68
27 1 13 -6 23 -18 26 -21 6 -48 64 -48 105 0 15 9 46 19 69 39 79 13 96 -101
66z"/>
<path d="M1853 5466 c-78 -29 -89 -39 -96 -79 -4 -18 -11 -61 -17 -97 -6 -36
-17 -83 -25 -105 -13 -38 -20 -73 -46 -245 -6 -41 -17 -111 -25 -155 -7 -44
-14 -100 -13 -125 l0 -45 25 30 c60 71 103 162 134 283 6 24 19 51 30 62 10
10 28 56 39 102 25 98 62 331 59 371 -1 15 -3 27 -3 26 0 0 -28 -10 -62 -23z"/>
<path d="M1467 5291 c-91 -51 -91 -51 -70 -96 14 -29 15 -39 6 -42 -7 -3 -13
-12 -13 -21 0 -36 94 -270 103 -256 3 5 15 67 26 137 15 90 19 143 14 180 -4
29 -6 57 -4 62 11 33 18 75 12 75 -3 -1 -37 -18 -74 -39z"/>
<path d="M4174 5204 c3 -49 7 -152 7 -228 1 -94 6 -150 15 -172 8 -19 15 -37
15 -41 0 -5 5 -14 11 -20 7 -9 7 -17 0 -26 -6 -7 -9 -23 -5 -35 4 -17 1 -22
-13 -22 -33 -1 -56 -25 -49 -53 9 -34 35 -38 124 -23 82 14 95 25 112 91 22
85 33 112 69 165 40 58 73 128 84 172 5 22 0 31 -31 57 -21 17 -40 31 -43 31
-3 0 -17 -24 -32 -53 -26 -54 -74 -117 -88 -117 -4 0 -9 59 -12 131 -4 149 2
137 -110 199 l-61 33 7 -89z"/>
<path d="M1233 4925 c-9 -25 26 -98 62 -128 l34 -28 -2 33 c-1 18 -12 49 -23
68 -11 19 -23 43 -27 53 -8 21 -36 22 -44 2z"/>
<path d="M4693 4808 c-21 -18 -78 -75 -127 -125 -108 -112 -196 -187 -296
-250 -42 -27 -91 -60 -110 -75 -35 -27 -35 -27 -18 -56 14 -23 15 -36 8 -63
-12 -41 -12 -39 0 -39 5 0 9 4 7 8 -1 4 7 25 18 45 14 27 24 35 38 31 9 -3 16
-2 15 3 -2 4 2 10 7 12 6 3 34 22 64 42 30 21 59 36 63 33 21 -13 218 -514
218 -554 0 -5 9 -34 21 -65 22 -59 49 -73 69 -36 16 30 12 56 -19 160 -16 53
-37 123 -47 156 -10 33 -32 94 -50 135 -43 99 -53 141 -55 224 -2 69 -1 70 32
95 106 78 203 215 215 305 8 55 0 58 -53 14z"/>
<path d="M3431 4560 c0 -124 4 -197 9 -185 12 28 12 357 0 375 -6 10 -10 -54
-9 -190z"/>
<path d="M3064 4508 c3 -24 13 -100 22 -169 10 -69 14 -133 11 -143 -6 -14
-15 -17 -45 -13 -20 3 -47 8 -59 12 -36 12 -38 -17 -8 -108 25 -75 73 -147 97
-147 5 0 8 21 6 48 -3 40 0 47 16 47 20 0 28 -10 48 -60 l12 -30 4 43 c2 23
-10 109 -27 190 -16 81 -38 198 -47 260 -10 61 -22 112 -27 112 -4 0 -6 -19
-3 -42z"/>
<path d="M1431 4479 c-15 -42 -14 -91 2 -112 17 -24 34 -9 47 43 21 79 -24
140 -49 69z"/>
<path d="M2813 4339 c-10 -10 -5 -51 12 -91 10 -24 105 -101 106 -86 7 66 -18
129 -68 168 -30 23 -35 24 -50 9z"/>
<path d="M1481 4268 c-5 -13 -5 -30 0 -40 5 -9 9 -30 9 -47 0 -38 17 -49 31
-19 13 29 -1 120 -19 126 -6 2 -16 -7 -21 -20z"/>
<path d="M4130 4168 c0 -7 -3 -31 -5 -53 l-5 -40 15 45 c18 54 18 60 5 60 -5
0 -10 -6 -10 -12z"/>
<path d="M5070 4152 c0 -5 11 -19 25 -32 14 -13 25 -20 25 -15 0 5 6 2 13 -7
6 -9 24 -18 39 -22 15 -3 35 -14 45 -24 22 -23 111 -72 129 -72 8 0 14 -4 14
-10 0 -5 7 -10 15 -10 20 0 20 0 -12 65 -20 40 -33 55 -48 55 -39 0 -95 21
-95 35 0 10 -11 15 -34 15 -18 0 -50 7 -69 15 -42 17 -47 18 -47 7z"/>
<path d="M2843 3868 c-31 -15 -29 -25 8 -33 36 -8 43 -3 34 24 -7 23 -11 24
-42 9z"/>
<path d="M272 3859 c5 -16 76 -59 97 -59 20 0 7 11 -53 45 -32 19 -47 24 -44
14z"/>
<path d="M4788 3826 c-24 -18 -23 -26 4 -26 28 0 88 22 88 32 0 13 -74 8 -92
-6z"/>
<path d="M5510 3616 c0 -8 4 -17 9 -20 5 -4 7 3 4 14 -6 23 -13 26 -13 6z"/>
<path d="M4843 3613 c-25 -9 -13 -23 20 -22 44 2 67 9 67 20 0 9 -65 11 -87 2z"/>
<path d="M5473 3567 c3 -9 2 -18 -4 -21 -5 -2 -4 -3 3 -2 7 2 26 -6 41 -17 16
-10 31 -16 35 -12 7 6 -25 35 -62 56 -16 9 -18 9 -13 -4z"/>
<path d="M5577 3340 c-3 -19 -9 -56 -12 -82 -4 -27 -11 -48 -16 -48 -6 0 -8
-4 -4 -10 3 -5 12 -7 20 -4 9 4 16 31 20 79 8 78 2 124 -8 65z"/>
<path d="M5255 3244 c-15 -11 -16 -21 -10 -61 11 -66 8 -194 -5 -245 -7 -23
-11 -82 -11 -130 1 -85 0 -89 -29 -115 -38 -33 -38 -40 3 -48 17 -3 53 -13 79
-21 45 -15 47 -17 52 -57 3 -23 8 -63 11 -89 8 -63 39 -101 77 -96 19 3 27 1
24 -7 -2 -7 0 -18 5 -26 7 -11 9 -11 9 3 0 11 6 15 20 11 16 -4 20 0 20 17 0
20 3 22 38 15 20 -4 42 -11 49 -17 9 -7 13 0 17 24 3 18 10 62 15 98 15 93 24
407 14 460 l-9 45 -39 -3 c-46 -4 -62 -21 -38 -39 15 -12 15 -13 1 -13 -9 0
-18 -7 -22 -15 -4 -12 3 -15 29 -15 44 0 46 -15 3 -16 -18 0 -42 -4 -52 -9
-17 -7 -18 -5 -12 16 19 71 19 106 -3 128 -12 12 -34 21 -51 21 -37 0 -55 27
-65 93 -11 79 -72 126 -120 91z m149 -221 c7 -16 17 -44 21 -63 4 -19 11 -39
15 -45 4 -5 6 -21 5 -35 -1 -14 2 -31 7 -37 19 -23 2 -39 -35 -35 -36 4 -45
15 -66 81 -33 104 11 215 53 134z m137 -308 c12 -14 26 -22 34 -18 8 3 15 0
15 -5 0 -6 -12 -12 -27 -14 -36 -4 -45 -38 -11 -39 23 0 23 0 2 -9 -40 -16
-37 -30 5 -30 23 0 41 -4 41 -9 0 -5 -21 -8 -48 -8 l-48 1 1 78 c0 43 4 78 9
78 4 0 17 -11 27 -25z"/>
<path d="M17 3088 c-22 -258 -17 -451 18 -682 118 -789 571 -1500 1230 -1932
118 -77 239 -146 329 -187 l56 -26 -5 25 c-3 13 -7 36 -10 50 -4 17 -11 24
-20 20 -9 -3 -15 0 -15 8 0 7 -9 21 -20 31 -11 10 -20 24 -20 32 0 7 -7 13
-15 13 -9 0 -18 7 -22 16 -7 19 -51 64 -61 64 -4 0 -14 8 -23 18 -25 28 -101
92 -131 110 -15 9 -28 22 -28 28 0 7 -9 16 -20 19 -11 3 -20 13 -20 22 0 8 -9
17 -20 20 -11 3 -20 9 -20 14 0 5 -13 9 -30 9 -21 0 -28 4 -24 14 3 7 -6 23
-20 34 -14 11 -26 23 -26 27 0 11 -59 63 -64 57 -3 -2 -10 7 -15 22 -6 14 -15
26 -20 26 -6 0 -22 21 -37 48 -15 26 -33 52 -41 58 -8 7 -16 25 -19 40 -3 16
-8 31 -12 34 -7 5 -23 42 -49 117 -20 55 -100 135 -127 127 -15 -5 -18 -2 -13
15 3 11 2 21 -2 21 -4 0 -14 18 -21 40 -7 22 -17 40 -23 40 -11 0 -48 46 -64
79 -6 15 -12 20 -12 14 -1 -19 -21 -15 -21 4 0 9 -7 25 -17 35 -15 17 -15 18
3 19 11 0 14 3 6 6 -7 3 -22 22 -32 44 -11 21 -25 39 -30 39 -5 0 -21 27 -37
60 -15 33 -35 62 -44 65 -13 4 -16 13 -13 33 3 16 0 31 -9 37 -7 5 -22 25 -32
43 -17 28 -21 30 -27 15 -6 -16 -7 -16 -7 2 -1 12 -5 25 -10 30 -4 6 -16 34
-27 63 -10 28 -23 52 -30 52 -13 0 -38 53 -41 90 -1 14 -4 43 -6 64 -3 26 -12
46 -27 58 -20 16 -21 21 -10 28 13 8 12 11 -4 23 -11 8 -21 27 -22 43 -2 16
-10 65 -18 109 -8 44 -17 104 -21 134 -7 60 -21 95 -36 86 -5 -4 -9 -3 -10 2
0 4 -2 55 -5 113 -2 58 -7 119 -10 135 -3 17 -8 57 -10 90 -3 32 -6 61 -8 62
-2 2 -6 -29 -9 -69z"/>
<path d="M5540 3040 c6 -11 16 -20 22 -20 6 0 3 9 -7 20 -10 11 -20 20 -22 20
-2 0 1 -9 7 -20z"/>
<path d="M4510 2828 c0 -44 71 -197 91 -198 13 0 -23 126 -47 168 -24 41 -44
55 -44 30z"/>
<path d="M2989 2573 c-29 -20 -39 -33 -39 -53 0 -9 14 0 37 22 40 41 42 58 2
31z"/>
<path d="M4660 2521 c0 -5 5 -13 10 -16 6 -3 10 -2 10 4 0 5 -4 13 -10 16 -5
3 -10 2 -10 -4z"/>
<path d="M3600 2477 c-48 -75 -170 -317 -170 -336 0 -5 -11 -34 -25 -65 -41
-93 -28 -87 22 9 25 50 55 103 66 118 23 34 33 25 44 -43 l7 -45 7 45 c4 25 8
70 8 101 1 33 13 90 31 144 16 49 29 90 27 91 -1 2 -9 -7 -17 -19z"/>
<path d="M4285 2408 c16 -176 120 -355 325 -558 41 -41 90 -87 108 -102 l32
-26 0 23 c0 15 -24 50 -66 96 l-67 72 6 81 c6 87 31 174 52 183 25 9 53 -17
123 -115 39 -55 80 -102 92 -105 25 -6 26 -9 -75 128 -45 61 -94 131 -109 158
-29 52 -27 50 -108 47 -44 -1 -71 4 -114 24 -73 33 -84 33 -84 -3 0 -35 -22
-58 -37 -39 -6 7 -22 45 -37 83 -43 112 -47 117 -41 53z m318 -200 c7 -11 5
-37 -6 -84 -8 -38 -19 -84 -22 -102 -9 -45 -32 -52 -62 -18 -41 48 -26 155 29
201 33 28 46 28 61 3z"/>
<path d="M5530 2341 c0 -16 -3 -36 -6 -45 -11 -29 15 -16 31 15 18 34 14 59
-10 59 -10 0 -15 -10 -15 -29z"/>
<path d="M5553 2271 c-32 -26 -33 -31 -33 -99 0 -41 -4 -72 -10 -72 -5 0 -10
-4 -10 -10 0 -5 8 -10 19 -10 15 0 23 18 45 107 14 58 25 107 23 109 -1 1 -17
-10 -34 -25z"/>
<path d="M5457 2272 c5 -11 3 -13 -8 -7 -11 6 -11 5 -2 -5 9 -10 15 -10 27 3
14 13 13 15 -4 20 -14 3 -17 1 -13 -11z"/>
<path d="M4821 2224 c0 -11 3 -14 6 -6 3 7 2 16 -1 19 -3 4 -6 -2 -5 -13z"/>
<path d="M5470 2226 c0 -8 5 -18 10 -21 6 -3 10 3 10 14 0 12 -4 21 -10 21 -5
0 -10 -6 -10 -14z"/>
<path d="M4845 2190 c3 -5 8 -10 11 -10 2 0 4 5 4 10 0 6 -5 10 -11 10 -5 0
-7 -4 -4 -10z"/>
<path d="M4870 2156 c1 -23 59 -103 79 -109 37 -9 24 24 -29 73 -27 25 -50 41
-50 36z"/>
<path d="M5063 2074 c-3 -9 4 -36 16 -60 11 -25 21 -54 21 -66 0 -18 -4 -20
-30 -14 -39 7 -48 -11 -27 -54 18 -36 10 -43 -31 -28 -20 8 -35 9 -41 3 -5 -6
-11 -46 -13 -90 l-3 -79 39 -22 c48 -27 131 -41 150 -25 7 6 16 29 20 50 l6
38 42 -6 c62 -9 118 -2 125 14 5 15 -105 195 -170 277 -20 26 -51 55 -67 63
-28 14 -31 14 -37 -1z"/>
<path d="M4290 1880 c8 -5 20 -10 25 -10 6 0 3 5 -5 10 -8 5 -19 10 -25 10 -5
0 -3 -5 5 -10z"/>
<path d="M1046 1821 c17 -35 77 -66 154 -81 56 -11 93 1 49 15 -13 5 -64 27
-113 51 -49 24 -92 44 -97 44 -4 0 -1 -13 7 -29z"/>
<path d="M4399 1796 c8 -10 33 -26 55 -37 40 -20 40 -20 17 -1 -14 11 -38 28
-55 38 -29 17 -30 17 -17 0z"/>
<path d="M4208 1710 c-21 -49 -38 -97 -38 -105 0 -9 -7 -23 -15 -32 -12 -12
-13 -18 -4 -29 16 -19 24 -11 54 54 43 90 69 202 48 202 -5 0 -25 -41 -45 -90z"/>
<path d="M1814 1642 c4 -7 14 -12 22 -12 7 0 31 -15 51 -33 21 -18 54 -44 73
-57 53 -36 124 -116 177 -197 45 -70 64 -85 78 -63 3 6 1 10 -4 10 -6 0 -11 9
-11 20 0 11 -31 66 -70 122 -38 57 -65 107 -61 111 4 4 44 -1 87 -12 43 -10
99 -22 124 -26 119 -17 266 -48 289 -60 29 -15 59 -42 115 -104 34 -39 40 -42
53 -28 10 9 13 23 8 36 -9 28 -167 195 -210 221 -51 32 -154 50 -335 60 -91 5
-216 12 -279 16 -85 5 -112 4 -107 -4z m555 -88 c14 -13 -12 -13 -40 0 l-34
16 35 -6 c19 -4 37 -8 39 -10z"/>
<path d="M4414 1635 c-10 -8 -38 -15 -62 -15 -37 0 -45 -4 -62 -32 -11 -18
-20 -43 -20 -55 0 -19 6 -23 28 -23 16 0 37 -7 48 -15 21 -16 54 -20 54 -7 0
9 41 50 79 80 l24 19 -33 31 c-18 18 -34 32 -35 32 0 0 -10 -7 -21 -15z"/>
<path d="M4740 1579 c38 -34 89 -59 117 -59 10 0 -16 20 -57 45 -87 52 -110
57 -60 14z"/>
<path d="M4590 1591 c0 -5 15 -20 33 -32 17 -12 46 -35 63 -51 21 -19 40 -29
55 -26 20 3 15 9 -36 48 -87 67 -115 81 -115 61z"/>
<path d="M4136 1515 c-3 -8 -1 -15 4 -15 6 0 10 7 10 15 0 8 -2 15 -4 15 -2 0
-6 -7 -10 -15z"/>
<path d="M5245 1428 c-11 -6 -30 -20 -43 -32 -17 -15 -38 -21 -75 -22 -83 -1
-91 -7 -131 -94 -20 -44 -36 -88 -36 -98 0 -12 -11 -24 -30 -32 -44 -18 -51
-33 -51 -96 0 -93 -27 -117 -83 -73 -50 39 -135 197 -151 279 -8 44 -28 90
-37 90 -22 0 -30 -49 -25 -144 10 -165 40 -221 171 -325 l65 -51 95 108 c53
59 129 151 168 204 74 97 193 286 187 293 -2 2 -13 -1 -24 -7z"/>
<path d="M2512 1400 c0 -14 2 -19 5 -12 2 6 2 18 0 25 -3 6 -5 1 -5 -13z"/>
<path d="M2515 1233 c6 -164 6 -163 16 -163 16 0 40 33 34 48 -3 9 -13 69 -22
134 -9 65 -21 118 -25 118 -5 0 -6 -62 -3 -137z"/>
<path d="M4198 1345 c-59 -79 -92 -169 -122 -331 -29 -156 -88 -296 -114 -269
-7 6 -8 10 -11 36 -2 20 -63 1 -94 -29 -16 -15 -38 -43 -50 -62 -11 -19 -36
-52 -55 -74 -19 -21 -40 -53 -47 -70 -8 -18 -39 -52 -69 -76 -31 -25 -98 -94
-150 -155 -51 -60 -108 -127 -127 -148 -18 -21 -48 -44 -66 -52 -18 -8 -33
-20 -33 -26 0 -7 -10 -23 -22 -36 l-22 -23 35 6 c495 85 926 270 1289 553 121
94 261 221 255 231 -3 5 -18 15 -33 23 -15 8 -39 21 -55 29 -25 14 -33 13
-110 -14 -125 -44 -163 -46 -215 -8 -23 17 -51 45 -62 63 -21 34 -27 105 -11
135 9 17 35 121 45 179 12 70 -14 38 -43 -54 -17 -54 -38 -119 -46 -144 -21
-66 -19 -92 11 -120 45 -41 104 -127 98 -143 -5 -13 -25 -23 -76 -39 -21 -7
-35 10 -40 48 -3 27 -7 30 -38 31 -19 0 -40 1 -46 2 -20 3 -14 98 11 185 26
90 50 321 37 356 -7 18 -8 18 -24 -4z m-38 -659 c0 -36 -25 -88 -57 -118 -71
-68 -288 -137 -222 -71 9 9 8 16 -5 28 -9 9 -16 22 -16 28 1 23 35 55 85 80
28 14 65 37 84 51 26 20 47 26 83 26 44 0 48 -2 48 -24z"/>
<path d="M3401 1230 c-97 -70 -364 -220 -393 -220 -19 0 -37 22 -91 109 -42
69 -63 83 -83 56 -16 -21 -4 -44 95 -195 31 -47 70 -111 87 -143 29 -56 31
-57 41 -35 11 24 238 143 295 155 35 7 81 60 97 112 13 44 15 191 3 191 -5 0
-28 -14 -51 -30z"/>
<path d="M2550 952 c-25 -15 -79 -50 -120 -78 -75 -51 -248 -146 -285 -156
-169 -49 -182 -51 -290 -50 -133 1 -179 -10 -169 -41 4 -12 11 -23 15 -25 5
-2 9 -10 9 -17 0 -27 41 -38 119 -32 64 5 104 17 250 77 95 39 186 72 202 74
33 4 60 21 111 68 20 19 52 44 72 56 31 18 37 19 50 7 25 -26 46 -18 46 16 0
17 8 43 19 57 22 32 36 72 24 71 -4 0 -28 -12 -53 -27z"/>
<path d="M2500 722 c0 -9 9 -64 20 -121 25 -135 44 -357 36 -435 -11 -107 -13
-117 -26 -129 -10 -9 -11 -9 -6 1 5 8 1 12 -11 12 -10 0 -26 9 -35 19 -9 11
-34 23 -55 26 -21 3 -46 11 -56 16 -14 8 -24 6 -37 -6 -17 -15 -17 -20 -5 -39
15 -22 38 -27 245 -52 49 -7 54 -6 42 9 -11 12 -11 35 -3 109 23 212 35 458
23 470 -7 7 -12 19 -12 28 0 21 -83 110 -103 110 -10 0 -17 -8 -17 -18z"/>
<path d="M3112 525 c0 -11 4 -33 8 -50 7 -27 8 -27 8 -5 0 14 -4 36 -8 50 -6
20 -8 21 -8 5z"/>
<path d="M2852 128 c-5 -7 -17 -29 -27 -48 -10 -19 -29 -45 -44 -57 l-26 -22
66 -1 c37 0 82 3 100 7 l34 7 -35 6 c-34 5 -35 6 -36 50 -1 60 -2 70 -13 70
-5 0 -13 -6 -19 -12z"/>
</g>
</svg>
